<svg height="459pt" viewBox="-64 0 459 459.157" width="459pt" xmlns="http://www.w3.org/2000/svg"><path d="m183.464844 12.332031 118.640625 37.152344c15.621093 4.890625 24.320312 21.519531 19.429687 37.140625l-106.65625 340.613281c-4.890625 15.621094-21.519531 24.320313-37.140625 19.429688l-118.640625-37.148438c-15.621094-4.890625-24.320312-21.519531-19.425781-37.140625l106.652344-340.617187c4.890625-15.621094 21.519531-24.320313 37.140625-19.429688zm0 0" fill="#dd3e46"/><path d="m92.996094 202.070312 175.210937 54.859376-53.328125 170.308593c-4.890625 15.621094-21.519531 24.320313-37.140625 19.429688l-118.640625-37.152344c-15.621094-4.890625-24.320312-21.519531-19.429687-37.140625zm0 0" fill="#394d5c"/><path d="m283.105469 99.449219c0 12.675781-10.273438 22.949219-22.949219 22.949219s-22.949219-10.273438-22.949219-22.949219 10.273438-22.949219 22.949219-22.949219 22.949219 10.273438 22.949219 22.949219zm0 0" fill="#fff"/><path d="m252.507812 183.601562c0 12.671876-10.277343 22.949219-22.953124 22.949219-12.671876 0-22.949219-10.277343-22.949219-22.949219 0-12.675781 10.277343-22.953124 22.949219-22.953124 12.675781 0 22.953124 10.277343 22.953124 22.953124zm0 0" fill="#fff"/><path d="m40.757812 7.648438h148.097657c18.253906 0 33.050781 14.800781 33.050781 33.054687v377.597656c0 18.25-14.796875 33.050781-33.050781 33.050781h-148.097657c-18.253906 0-33.050781-14.800781-33.050781-33.050781v-377.597656c0-18.253906 14.796875-33.054687 33.050781-33.054687zm0 0" fill="#394d5c"/><path d="m7.707031 221.851562h214.199219v195.882813c0 18.566406-15.050781 33.617187-33.617188 33.617187h-146.964843c-18.566407 0-33.617188-15.050781-33.617188-33.617187zm0 0" fill="#dd3e46"/><g fill="#fff"><path d="m137.757812 114.75c0 12.675781-10.277343 22.949219-22.953124 22.949219-12.671876 0-22.949219-10.273438-22.949219-22.949219s10.277343-22.949219 22.949219-22.949219c12.675781 0 22.953124 10.273438 22.953124 22.949219zm0 0"/><path d="m137.757812 336.601562c0 12.671876-10.277343 22.949219-22.953124 22.949219-12.671876 0-22.949219-10.277343-22.949219-22.949219 0-12.675781 10.277343-22.953124 22.949219-22.953124 12.675781 0 22.953124 10.277343 22.953124 22.953124zm0 0"/><path d="m91.855469 397.800781c0 12.675781-10.273438 22.949219-22.949219 22.949219s-22.949219-10.273438-22.949219-22.949219 10.273438-22.949219 22.949219-22.949219 22.949219 10.273438 22.949219 22.949219zm0 0"/><path d="m183.65625 397.800781c0 12.675781-10.273438 22.949219-22.949219 22.949219s-22.949219-10.273438-22.949219-22.949219 10.273438-22.949219 22.949219-22.949219 22.949219 10.273438 22.949219 22.949219zm0 0"/><path d="m91.855469 275.398438c0 12.675781-10.273438 22.953124-22.949219 22.953124s-22.949219-10.277343-22.949219-22.953124c0-12.671876 10.273438-22.949219 22.949219-22.949219s22.949219 10.277343 22.949219 22.949219zm0 0"/><path d="m183.65625 275.398438c0 12.675781-10.273438 22.953124-22.949219 22.953124s-22.949219-10.277343-22.949219-22.953124c0-12.671876 10.273438-22.949219 22.949219-22.949219s22.949219 10.277343 22.949219 22.949219zm0 0"/></g><path d="m304.390625 42.1875-83.335937-26.097656c-7.632813-10.097656-19.542969-16.0507815-32.199219-16.089844h-148.097657c-22.46875.0273438-40.6757808 18.234375-40.7031245 40.699219v377.601562c.0273437 22.464844 18.2343745 40.675781 40.7031245 40.699219h148.097657c22.46875-.027344 40.675781-18.234375 40.699219-40.699219v-13.109375c.257812-.40625.472656-.835937.644531-1.28125l45.308593-144.691406.003907-.011719 53.324219-170.296875c6.148437-19.652344-4.792969-40.570312-24.445313-46.722656zm-74.835937 210.65625 29.070312 9.101562-29.070312 92.828126zm0-84.542969c8.453124 0 15.300781 6.847657 15.300781 15.300781 0 8.449219-6.847657 15.296876-15.300781 15.296876zm-188.796876-153h148.097657c14.023437.015625 25.386719 11.378907 25.402343 25.398438v173.5h-198.902343v-173.5c.015625-14.019531 11.378906-25.382813 25.402343-25.398438zm.566407 428.398438c-14.335938-.015625-25.953125-11.632813-25.96875-25.96875v-188.230469h198.902343v188.230469c-.015624 14.335937-11.632812 25.953125-25.96875 25.96875zm272.910156-359.363281-51.039063 163.011718-33.640624-10.53125v-22.617187c16.902343 0 30.601562-13.699219 30.601562-30.597657 0-16.898437-13.699219-30.601562-30.601562-30.601562v-112.300781c-.046876-2.046875-.253907-4.089844-.617188-6.109375l70.878906 22.195312c11.589844 3.621094 18.046875 15.953125 14.421875 27.539063 0 .007812 0 .007812-.003906.011719zm0 0"/><path d="m114.804688 145.351562c16.902343 0 30.601562-13.703124 30.601562-30.601562s-13.699219-30.597656-30.601562-30.597656c-16.898438 0-30.597657 13.699218-30.597657 30.597656.015625 16.894531 13.707031 30.582031 30.597657 30.601562zm0-45.902343c8.453124 0 15.300781 6.851562 15.300781 15.300781s-6.847657 15.300781-15.300781 15.300781c-8.449219 0-15.296876-6.851562-15.296876-15.300781.007813-8.445312 6.851563-15.289062 15.296876-15.300781zm0 0"/><path d="m260.15625 130.050781c16.902344 0 30.601562-13.703125 30.601562-30.601562 0-16.898438-13.703124-30.597657-30.601562-30.597657s-30.597656 13.699219-30.597656 30.597657c.015625 16.894531 13.703125 30.585937 30.597656 30.601562zm0-45.902343c8.449219 0 15.300781 6.851562 15.300781 15.300781s-6.851562 15.300781-15.300781 15.300781-15.300781-6.851562-15.300781-15.300781c.011719-8.445313 6.855469-15.289063 15.300781-15.300781zm0 0"/><path d="m145.40625 336.601562c0-16.902343-13.699219-30.601562-30.597656-30.601562-16.902344 0-30.601563 13.699219-30.601563 30.601562 0 16.898438 13.699219 30.597657 30.601563 30.597657 16.890625-.015625 30.582031-13.707031 30.597656-30.597657zm-30.601562 15.296876c-8.449219 0-15.296876-6.847657-15.296876-15.296876 0-8.453124 6.847657-15.300781 15.296876-15.300781 8.453124 0 15.300781 6.847657 15.300781 15.300781-.011719 8.445313-6.855469 15.285157-15.300781 15.296876zm0 0"/><path d="m68.90625 367.199219c-16.902344 0-30.601562 13.703125-30.601562 30.601562 0 16.898438 13.703124 30.597657 30.601562 30.597657s30.597656-13.699219 30.597656-30.597657c-.011718-16.894531-13.703125-30.585937-30.597656-30.601562zm0 45.902343c-8.449219 0-15.300781-6.851562-15.300781-15.300781s6.851562-15.300781 15.300781-15.300781 15.300781 6.851562 15.300781 15.300781c-.011719 8.445313-6.855469 15.289063-15.300781 15.300781zm0 0"/><path d="m160.707031 367.199219c-16.902343 0-30.601562 13.703125-30.601562 30.601562 0 16.898438 13.703125 30.597657 30.601562 30.597657 16.898438 0 30.597657-13.699219 30.597657-30.597657-.015626-16.894531-13.703126-30.585937-30.597657-30.601562zm0 45.902343c-8.449219 0-15.300781-6.851562-15.300781-15.300781s6.851562-15.300781 15.300781-15.300781 15.300781 6.851562 15.300781 15.300781c-.011718 8.445313-6.855468 15.289063-15.300781 15.300781zm0 0"/><path d="m68.90625 306c16.898438 0 30.597656-13.699219 30.597656-30.597656 0-16.902344-13.699218-30.601563-30.597656-30.601563s-30.601562 13.699219-30.601562 30.601563c.019531 16.890625 13.710937 30.582031 30.601562 30.597656zm0-45.898438c8.449219 0 15.300781 6.847657 15.300781 15.296876 0 8.453124-6.851562 15.300781-15.300781 15.300781s-15.300781-6.847657-15.300781-15.300781c.011719-8.445313 6.855469-15.289063 15.300781-15.296876zm0 0"/><path d="m160.707031 306c16.898438 0 30.597657-13.699219 30.597657-30.597656 0-16.902344-13.699219-30.601563-30.597657-30.601563-16.898437 0-30.601562 13.699219-30.601562 30.601563.015625 16.890625 13.707031 30.582031 30.601562 30.597656zm0-45.898438c8.449219 0 15.300781 6.847657 15.300781 15.296876 0 8.453124-6.851562 15.300781-15.300781 15.300781s-15.300781-6.847657-15.300781-15.300781c.011719-8.445313 6.855469-15.289063 15.300781-15.296876zm0 0"/></svg>